# xmcd
#
# Track frame offsets: 
#        183
#        19540
#        40853
#        60063
#        82385
#        102300
#        121825
#        141843
#        160470
#        176743
#
# Disc length: 2603 seconds
#
# Revision: 0
# Processed by: cddbd v1.5.2PL0 Copyright (c) Steve Scherf et al.
# Submitted via: ExactAudioCopyFreeDBPlugin 1.0
#
DISCID=7e0a290a
DTITLE=Pepe Lienhard - Saxemotion
DYEAR=1993
DGENRE=Blues
TTITLE0=Bird Call
TTITLE1=Blues for a Hertbreaker
TTITLE2=Just the Two of Us
TTITLE3=I Have Nothing
TTITLE4=How Am I Supposed to Live Without You
TTITLE5=Waiting for You
TTITLE6=Walking By
TTITLE7=Tom Tubert's Blues
TTITLE8=I Will Always Love You
TTITLE9=Flight of the Eagle
EXTD=
EXTT0=
EXTT1=
EXTT2=
EXTT3=
EXTT4=
EXTT5=
EXTT6=
EXTT7=
EXTT8=
EXTT9=
PLAYORDER=
